# xmcd
#
# Track frame offsets:
#	150
#	10209
#	23770
#	34190
#	47636
#	60601
#	73401
#	86443
#	98287
#	110005
#	122214
#	134897
#
# Disc length: 1931 seconds
#
# Revision: 0
# Processed by: cddbd v1.4PL0 Copyright (c) Steve Scherf et al.
# Submitted via: EasyCDDAExtractor 4.6.9.1
#
DISCID=a407890c
DTITLE=Die 5 namakwalanders - Alla wereld
DYEAR=2001
DGENRE=Country
TTITLE0=Alla wereld
TTITLE1=Jasper se vastrap
TTITLE2=Carolusberg wals
TTITLE3=Namakwa-riel
TTITLE4=Soutpansberg se polka
TTITLE5=Sewejaar vastrap
TTITLE6=Anna pop settees
TTITLE7=Richard se mazurka
TTITLE8=Verlate op die berg settees
TTITLE9=oom sakkie se wals
TTITLE10=Mampoer polka
TTITLE11=Grasvlakte settees
EXTD=
EXTT0=
EXTT1=
EXTT2=
EXTT3=
EXTT4=
EXTT5=
EXTT6=
EXTT7=
EXTT8=
EXTT9=
EXTT10=
EXTT11=
PLAYORDER=
